<mxfile host="app.diagrams.net" agent="Mozilla/5.0 (Windows NT 10.0; Win64; x64) AppleWebKit/537.36 (KHTML, like Gecko) Chrome/133.0.0.0 Safari/537.36" version="26.1.0">
  <diagram name="Page-1" id="RG2rouAcvoHzz4WiSBEe">
    <mxGraphModel dx="4555" dy="1098" grid="1" gridSize="10" guides="1" tooltips="1" connect="1" arrows="1" fold="1" page="1" pageScale="1" pageWidth="827" pageHeight="1169" math="0" shadow="0">
      <root>
        <mxCell id="0" />
        <mxCell id="1" parent="0" />
        <mxCell id="-uAn8qLbP6gpHFIlixTi-3" value="" style="edgeStyle=orthogonalEdgeStyle;rounded=0;orthogonalLoop=1;jettySize=auto;html=1;" parent="1" source="-uAn8qLbP6gpHFIlixTi-1" target="-uAn8qLbP6gpHFIlixTi-2" edge="1">
          <mxGeometry relative="1" as="geometry">
            <Array as="points">
              <mxPoint x="-10" y="560" />
              <mxPoint x="-10" y="560" />
            </Array>
          </mxGeometry>
        </mxCell>
        <mxCell id="-uAn8qLbP6gpHFIlixTi-5" value="" style="edgeStyle=orthogonalEdgeStyle;rounded=0;orthogonalLoop=1;jettySize=auto;html=1;" parent="1" source="-uAn8qLbP6gpHFIlixTi-1" target="-uAn8qLbP6gpHFIlixTi-4" edge="1">
          <mxGeometry relative="1" as="geometry" />
        </mxCell>
        <mxCell id="-uAn8qLbP6gpHFIlixTi-1" value="input" style="rounded=0;whiteSpace=wrap;html=1;" parent="1" vertex="1">
          <mxGeometry x="-530" y="530" width="120" height="60" as="geometry" />
        </mxCell>
        <mxCell id="-uAn8qLbP6gpHFIlixTi-7" value="" style="edgeStyle=orthogonalEdgeStyle;rounded=0;orthogonalLoop=1;jettySize=auto;html=1;" parent="1" source="-uAn8qLbP6gpHFIlixTi-2" target="-uAn8qLbP6gpHFIlixTi-6" edge="1">
          <mxGeometry relative="1" as="geometry" />
        </mxCell>
        <mxCell id="-uAn8qLbP6gpHFIlixTi-50" value="" style="edgeStyle=orthogonalEdgeStyle;rounded=0;orthogonalLoop=1;jettySize=auto;html=1;" parent="1" source="-uAn8qLbP6gpHFIlixTi-2" target="-uAn8qLbP6gpHFIlixTi-49" edge="1">
          <mxGeometry relative="1" as="geometry" />
        </mxCell>
        <mxCell id="-uAn8qLbP6gpHFIlixTi-2" value="add it to training data with the parameters" style="ellipse;whiteSpace=wrap;html=1;rounded=0;" parent="1" vertex="1">
          <mxGeometry x="400" y="515" width="80" height="80" as="geometry" />
        </mxCell>
        <mxCell id="-uAn8qLbP6gpHFIlixTi-40" value="" style="edgeStyle=orthogonalEdgeStyle;rounded=0;orthogonalLoop=1;jettySize=auto;html=1;" parent="1" source="-uAn8qLbP6gpHFIlixTi-4" target="-uAn8qLbP6gpHFIlixTi-39" edge="1">
          <mxGeometry relative="1" as="geometry" />
        </mxCell>
        <mxCell id="-uAn8qLbP6gpHFIlixTi-86" value="" style="edgeStyle=orthogonalEdgeStyle;rounded=0;orthogonalLoop=1;jettySize=auto;html=1;" parent="1" source="-uAn8qLbP6gpHFIlixTi-4" target="-uAn8qLbP6gpHFIlixTi-85" edge="1">
          <mxGeometry relative="1" as="geometry" />
        </mxCell>
        <mxCell id="-uAn8qLbP6gpHFIlixTi-4" value="check for thing like grammar, logic - parats of text" style="ellipse;whiteSpace=wrap;html=1;rounded=0;" parent="1" vertex="1">
          <mxGeometry x="-20" y="375" width="80" height="80" as="geometry" />
        </mxCell>
        <mxCell id="-uAn8qLbP6gpHFIlixTi-9" value="" style="edgeStyle=orthogonalEdgeStyle;rounded=0;orthogonalLoop=1;jettySize=auto;html=1;" parent="1" source="-uAn8qLbP6gpHFIlixTi-6" target="-uAn8qLbP6gpHFIlixTi-8" edge="1">
          <mxGeometry relative="1" as="geometry" />
        </mxCell>
        <mxCell id="-uAn8qLbP6gpHFIlixTi-46" value="" style="edgeStyle=orthogonalEdgeStyle;rounded=0;orthogonalLoop=1;jettySize=auto;html=1;" parent="1" source="-uAn8qLbP6gpHFIlixTi-6" target="-uAn8qLbP6gpHFIlixTi-45" edge="1">
          <mxGeometry relative="1" as="geometry" />
        </mxCell>
        <mxCell id="-uAn8qLbP6gpHFIlixTi-6" value="use training data to find the new / old parameters" style="whiteSpace=wrap;html=1;rounded=0;" parent="1" vertex="1">
          <mxGeometry x="540" y="525" width="120" height="60" as="geometry" />
        </mxCell>
        <mxCell id="-uAn8qLbP6gpHFIlixTi-11" value="" style="edgeStyle=orthogonalEdgeStyle;rounded=0;orthogonalLoop=1;jettySize=auto;html=1;" parent="1" source="-uAn8qLbP6gpHFIlixTi-8" target="-uAn8qLbP6gpHFIlixTi-10" edge="1">
          <mxGeometry relative="1" as="geometry" />
        </mxCell>
        <mxCell id="-uAn8qLbP6gpHFIlixTi-8" value="add to points system" style="whiteSpace=wrap;html=1;rounded=0;" parent="1" vertex="1">
          <mxGeometry x="740" y="525" width="120" height="60" as="geometry" />
        </mxCell>
        <mxCell id="-uAn8qLbP6gpHFIlixTi-13" value="" style="edgeStyle=orthogonalEdgeStyle;rounded=0;orthogonalLoop=1;jettySize=auto;html=1;" parent="1" source="-uAn8qLbP6gpHFIlixTi-10" target="-uAn8qLbP6gpHFIlixTi-12" edge="1">
          <mxGeometry relative="1" as="geometry" />
        </mxCell>
        <mxCell id="-uAn8qLbP6gpHFIlixTi-10" value="add a bias (greater / greater - less)" style="ellipse;whiteSpace=wrap;html=1;rounded=0;" parent="1" vertex="1">
          <mxGeometry x="960" y="515" width="80" height="80" as="geometry" />
        </mxCell>
        <mxCell id="-uAn8qLbP6gpHFIlixTi-24" value="" style="edgeStyle=orthogonalEdgeStyle;rounded=0;orthogonalLoop=1;jettySize=auto;html=1;" parent="1" source="-uAn8qLbP6gpHFIlixTi-12" target="-uAn8qLbP6gpHFIlixTi-23" edge="1">
          <mxGeometry relative="1" as="geometry" />
        </mxCell>
        <mxCell id="-uAn8qLbP6gpHFIlixTi-12" value="output point" style="whiteSpace=wrap;html=1;rounded=0;" parent="1" vertex="1">
          <mxGeometry x="1100" y="525" width="120" height="60" as="geometry" />
        </mxCell>
        <mxCell id="-uAn8qLbP6gpHFIlixTi-17" value="" style="edgeStyle=orthogonalEdgeStyle;rounded=0;orthogonalLoop=1;jettySize=auto;html=1;" parent="1" source="-uAn8qLbP6gpHFIlixTi-15" target="-uAn8qLbP6gpHFIlixTi-16" edge="1">
          <mxGeometry relative="1" as="geometry" />
        </mxCell>
        <mxCell id="-uAn8qLbP6gpHFIlixTi-15" value="input" style="ellipse;whiteSpace=wrap;html=1;aspect=fixed;" parent="1" vertex="1">
          <mxGeometry x="-1130" y="515" width="80" height="80" as="geometry" />
        </mxCell>
        <mxCell id="-uAn8qLbP6gpHFIlixTi-19" value="" style="edgeStyle=orthogonalEdgeStyle;rounded=0;orthogonalLoop=1;jettySize=auto;html=1;" parent="1" source="-uAn8qLbP6gpHFIlixTi-16" target="-uAn8qLbP6gpHFIlixTi-18" edge="1">
          <mxGeometry relative="1" as="geometry" />
        </mxCell>
        <mxCell id="-uAn8qLbP6gpHFIlixTi-16" value="points adder" style="ellipse;whiteSpace=wrap;html=1;aspect=fixed;" parent="1" vertex="1">
          <mxGeometry x="-730" y="140" width="80" height="80" as="geometry" />
        </mxCell>
        <mxCell id="-uAn8qLbP6gpHFIlixTi-21" value="" style="edgeStyle=orthogonalEdgeStyle;rounded=0;orthogonalLoop=1;jettySize=auto;html=1;" parent="1" source="-uAn8qLbP6gpHFIlixTi-18" target="-uAn8qLbP6gpHFIlixTi-20" edge="1">
          <mxGeometry relative="1" as="geometry" />
        </mxCell>
        <mxCell id="-uAn8qLbP6gpHFIlixTi-30" value="" style="edgeStyle=orthogonalEdgeStyle;rounded=0;orthogonalLoop=1;jettySize=auto;html=1;" parent="1" source="-uAn8qLbP6gpHFIlixTi-18" edge="1">
          <mxGeometry relative="1" as="geometry">
            <mxPoint x="-460" y="310" as="targetPoint" />
            <Array as="points">
              <mxPoint x="341" y="200" />
            </Array>
          </mxGeometry>
        </mxCell>
        <mxCell id="-uAn8qLbP6gpHFIlixTi-18" value="processing" style="ellipse;whiteSpace=wrap;html=1;" parent="1" vertex="1">
          <mxGeometry x="160" y="140" width="80" height="80" as="geometry" />
        </mxCell>
        <mxCell id="-uAn8qLbP6gpHFIlixTi-26" value="" style="edgeStyle=orthogonalEdgeStyle;rounded=0;orthogonalLoop=1;jettySize=auto;html=1;" parent="1" source="-uAn8qLbP6gpHFIlixTi-20" target="-uAn8qLbP6gpHFIlixTi-25" edge="1">
          <mxGeometry relative="1" as="geometry" />
        </mxCell>
        <mxCell id="-uAn8qLbP6gpHFIlixTi-20" value="" style="shape=waypoint;sketch=0;size=6;pointerEvents=1;points=[];fillColor=default;resizable=0;rotatable=0;perimeter=centerPerimeter;snapToPoint=1;" parent="1" vertex="1">
          <mxGeometry x="1380" y="170" width="20" height="20" as="geometry" />
        </mxCell>
        <mxCell id="-uAn8qLbP6gpHFIlixTi-29" value="" style="edgeStyle=orthogonalEdgeStyle;rounded=0;orthogonalLoop=1;jettySize=auto;html=1;" parent="1" source="-uAn8qLbP6gpHFIlixTi-22" target="-uAn8qLbP6gpHFIlixTi-28" edge="1">
          <mxGeometry relative="1" as="geometry" />
        </mxCell>
        <mxCell id="-uAn8qLbP6gpHFIlixTi-22" value="calculate the output" style="rounded=1;whiteSpace=wrap;html=1;" parent="1" vertex="1">
          <mxGeometry x="1340" y="525" width="120" height="60" as="geometry" />
        </mxCell>
        <mxCell id="-uAn8qLbP6gpHFIlixTi-23" value="" style="shape=waypoint;sketch=0;size=6;pointerEvents=1;points=[];fillColor=default;resizable=0;rotatable=0;perimeter=centerPerimeter;snapToPoint=1;rounded=0;" parent="1" vertex="1">
          <mxGeometry x="1350" y="545" width="20" height="20" as="geometry" />
        </mxCell>
        <mxCell id="-uAn8qLbP6gpHFIlixTi-25" value="" style="shape=waypoint;sketch=0;size=6;pointerEvents=1;points=[];fillColor=default;resizable=0;rotatable=0;perimeter=centerPerimeter;snapToPoint=1;" parent="1" vertex="1">
          <mxGeometry x="1380" y="520" width="20" height="20" as="geometry" />
        </mxCell>
        <mxCell id="-uAn8qLbP6gpHFIlixTi-27" value="output" style="ellipse;whiteSpace=wrap;html=1;aspect=fixed;" parent="1" vertex="1">
          <mxGeometry x="1620" y="520" width="80" height="80" as="geometry" />
        </mxCell>
        <mxCell id="-uAn8qLbP6gpHFIlixTi-28" value="" style="shape=waypoint;sketch=0;size=6;pointerEvents=1;points=[];fillColor=default;resizable=0;rotatable=0;perimeter=centerPerimeter;snapToPoint=1;rounded=1;" parent="1" vertex="1">
          <mxGeometry x="1620" y="550" width="20" height="20" as="geometry" />
        </mxCell>
        <mxCell id="-uAn8qLbP6gpHFIlixTi-31" style="edgeStyle=orthogonalEdgeStyle;rounded=0;orthogonalLoop=1;jettySize=auto;html=1;" parent="1" source="-uAn8qLbP6gpHFIlixTi-14" target="-uAn8qLbP6gpHFIlixTi-14" edge="1">
          <mxGeometry relative="1" as="geometry" />
        </mxCell>
        <mxCell id="-uAn8qLbP6gpHFIlixTi-32" value="" style="endArrow=classic;html=1;rounded=0;entryX=0.5;entryY=0;entryDx=0;entryDy=0;" parent="1" target="-uAn8qLbP6gpHFIlixTi-1" edge="1">
          <mxGeometry width="50" height="50" relative="1" as="geometry">
            <mxPoint x="-460" y="310" as="sourcePoint" />
            <mxPoint x="230" y="540" as="targetPoint" />
            <Array as="points" />
          </mxGeometry>
        </mxCell>
        <mxCell id="-uAn8qLbP6gpHFIlixTi-37" value="processing" style="rounded=0;whiteSpace=wrap;html=1;fillColor=#f8cecc;strokeColor=#b85450;fillOpacity=50;" parent="1" vertex="1">
          <mxGeometry x="-630" y="10" width="2360" height="240" as="geometry" />
        </mxCell>
        <mxCell id="-uAn8qLbP6gpHFIlixTi-38" value="" style="rounded=0;whiteSpace=wrap;html=1;fillColor=#f8cecc;strokeColor=#b85450;fillOpacity=50;" parent="1" vertex="1">
          <mxGeometry x="1290" y="250" width="440" height="450" as="geometry" />
        </mxCell>
        <mxCell id="-uAn8qLbP6gpHFIlixTi-42" value="" style="edgeStyle=orthogonalEdgeStyle;rounded=0;orthogonalLoop=1;jettySize=auto;html=1;" parent="1" source="-uAn8qLbP6gpHFIlixTi-39" target="-uAn8qLbP6gpHFIlixTi-41" edge="1">
          <mxGeometry relative="1" as="geometry" />
        </mxCell>
        <mxCell id="-uAn8qLbP6gpHFIlixTi-39" value="add attributes" style="whiteSpace=wrap;html=1;rounded=0;" parent="1" vertex="1">
          <mxGeometry x="120" y="385" width="120" height="60" as="geometry" />
        </mxCell>
        <mxCell id="-uAn8qLbP6gpHFIlixTi-44" value="" style="edgeStyle=orthogonalEdgeStyle;rounded=0;orthogonalLoop=1;jettySize=auto;html=1;" parent="1" source="-uAn8qLbP6gpHFIlixTi-41" target="-uAn8qLbP6gpHFIlixTi-43" edge="1">
          <mxGeometry relative="1" as="geometry" />
        </mxCell>
        <mxCell id="-uAn8qLbP6gpHFIlixTi-41" value="= paramaters" style="whiteSpace=wrap;html=1;rounded=0;" parent="1" vertex="1">
          <mxGeometry x="270" y="385" width="120" height="60" as="geometry" />
        </mxCell>
        <mxCell id="-uAn8qLbP6gpHFIlixTi-43" value="" style="shape=waypoint;sketch=0;size=6;pointerEvents=1;points=[];fillColor=default;resizable=0;rotatable=0;perimeter=centerPerimeter;snapToPoint=1;rounded=0;" parent="1" vertex="1">
          <mxGeometry x="320" y="545" width="20" height="20" as="geometry" />
        </mxCell>
        <mxCell id="-uAn8qLbP6gpHFIlixTi-48" value="" style="edgeStyle=orthogonalEdgeStyle;rounded=0;orthogonalLoop=1;jettySize=auto;html=1;" parent="1" source="-uAn8qLbP6gpHFIlixTi-45" target="-uAn8qLbP6gpHFIlixTi-47" edge="1">
          <mxGeometry relative="1" as="geometry" />
        </mxCell>
        <mxCell id="-uAn8qLbP6gpHFIlixTi-45" value="" style="shape=waypoint;sketch=0;size=6;pointerEvents=1;points=[];fillColor=default;resizable=0;rotatable=0;perimeter=centerPerimeter;snapToPoint=1;rounded=0;" parent="1" vertex="1">
          <mxGeometry x="590" y="405" width="20" height="20" as="geometry" />
        </mxCell>
        <mxCell id="-uAn8qLbP6gpHFIlixTi-47" value="" style="shape=waypoint;sketch=0;size=6;pointerEvents=1;points=[];fillColor=default;resizable=0;rotatable=0;perimeter=centerPerimeter;snapToPoint=1;rounded=0;" parent="1" vertex="1">
          <mxGeometry x="370" y="405" width="20" height="20" as="geometry" />
        </mxCell>
        <mxCell id="-uAn8qLbP6gpHFIlixTi-54" value="" style="edgeStyle=orthogonalEdgeStyle;rounded=0;orthogonalLoop=1;jettySize=auto;html=1;" parent="1" source="-uAn8qLbP6gpHFIlixTi-49" target="-uAn8qLbP6gpHFIlixTi-53" edge="1">
          <mxGeometry relative="1" as="geometry" />
        </mxCell>
        <mxCell id="-uAn8qLbP6gpHFIlixTi-49" value="dont remove duplicates, use them for preferences" style="whiteSpace=wrap;html=1;rounded=0;" parent="1" vertex="1">
          <mxGeometry x="380" y="685" width="120" height="60" as="geometry" />
        </mxCell>
        <mxCell id="-uAn8qLbP6gpHFIlixTi-51" value="&lt;div&gt;updated version 1-3-029 DVTK&lt;/div&gt;" style="rounded=0;whiteSpace=wrap;html=1;" parent="1" vertex="1">
          <mxGeometry x="-1090" y="820" width="120" height="60" as="geometry" />
        </mxCell>
        <mxCell id="-uAn8qLbP6gpHFIlixTi-52" value="Sulfur AI full&amp;nbsp;&lt;div&gt;network.&lt;/div&gt;" style="rounded=0;whiteSpace=wrap;html=1;" parent="1" vertex="1">
          <mxGeometry x="-920" y="820" width="120" height="60" as="geometry" />
        </mxCell>
        <mxCell id="-uAn8qLbP6gpHFIlixTi-53" value="preferences - cumin soon" style="whiteSpace=wrap;html=1;rounded=0;" parent="1" vertex="1">
          <mxGeometry x="580" y="685" width="120" height="60" as="geometry" />
        </mxCell>
        <mxCell id="-uAn8qLbP6gpHFIlixTi-55" value="device ai function" style="rounded=1;whiteSpace=wrap;html=1;fillColor=#e1d5e7;strokeColor=#9673a6;fillOpacity=50;" parent="1" vertex="1">
          <mxGeometry x="530" y="520" width="720" height="90" as="geometry" />
        </mxCell>
        <mxCell id="-uAn8qLbP6gpHFIlixTi-56" value="preferences ai function" style="rounded=1;whiteSpace=wrap;html=1;fillColor=#e1d5e7;strokeColor=#9673a6;fillOpacity=50;" parent="1" vertex="1">
          <mxGeometry x="540" y="650" width="420" height="130" as="geometry" />
        </mxCell>
        <mxCell id="-uAn8qLbP6gpHFIlixTi-59" value="" style="edgeStyle=orthogonalEdgeStyle;rounded=0;orthogonalLoop=1;jettySize=auto;html=1;" parent="1" source="-uAn8qLbP6gpHFIlixTi-57" target="-uAn8qLbP6gpHFIlixTi-58" edge="1">
          <mxGeometry relative="1" as="geometry" />
        </mxCell>
        <mxCell id="-uAn8qLbP6gpHFIlixTi-62" value="" style="edgeStyle=orthogonalEdgeStyle;rounded=0;orthogonalLoop=1;jettySize=auto;html=1;" parent="1" source="-uAn8qLbP6gpHFIlixTi-57" target="-uAn8qLbP6gpHFIlixTi-61" edge="1">
          <mxGeometry relative="1" as="geometry" />
        </mxCell>
        <mxCell id="-uAn8qLbP6gpHFIlixTi-57" value="architechture" style="rounded=1;whiteSpace=wrap;html=1;" parent="1" vertex="1">
          <mxGeometry x="-1000" y="260" width="120" height="60" as="geometry" />
        </mxCell>
        <mxCell id="-uAn8qLbP6gpHFIlixTi-58" value="" style="shape=waypoint;sketch=0;size=6;pointerEvents=1;points=[];fillColor=default;resizable=0;rotatable=0;perimeter=centerPerimeter;snapToPoint=1;rounded=1;" parent="1" vertex="1">
          <mxGeometry x="-700" y="280" width="20" height="20" as="geometry" />
        </mxCell>
        <mxCell id="-uAn8qLbP6gpHFIlixTi-64" value="" style="edgeStyle=orthogonalEdgeStyle;rounded=0;orthogonalLoop=1;jettySize=auto;html=1;" parent="1" source="-uAn8qLbP6gpHFIlixTi-61" target="-uAn8qLbP6gpHFIlixTi-63" edge="1">
          <mxGeometry relative="1" as="geometry" />
        </mxCell>
        <mxCell id="-uAn8qLbP6gpHFIlixTi-68" value="" style="edgeStyle=orthogonalEdgeStyle;rounded=0;orthogonalLoop=1;jettySize=auto;html=1;" parent="1" source="-uAn8qLbP6gpHFIlixTi-61" target="-uAn8qLbP6gpHFIlixTi-67" edge="1">
          <mxGeometry relative="1" as="geometry" />
        </mxCell>
        <mxCell id="-uAn8qLbP6gpHFIlixTi-61" value="check for run" style="whiteSpace=wrap;html=1;rounded=1;" parent="1" vertex="1">
          <mxGeometry x="-1000" y="120" width="120" height="60" as="geometry" />
        </mxCell>
        <mxCell id="-uAn8qLbP6gpHFIlixTi-66" value="" style="edgeStyle=orthogonalEdgeStyle;rounded=0;orthogonalLoop=1;jettySize=auto;html=1;" parent="1" source="-uAn8qLbP6gpHFIlixTi-63" target="-uAn8qLbP6gpHFIlixTi-65" edge="1">
          <mxGeometry relative="1" as="geometry" />
        </mxCell>
        <mxCell id="-uAn8qLbP6gpHFIlixTi-63" value="yes" style="rhombus;whiteSpace=wrap;html=1;rounded=1;" parent="1" vertex="1">
          <mxGeometry x="-850" y="110" width="80" height="80" as="geometry" />
        </mxCell>
        <mxCell id="-uAn8qLbP6gpHFIlixTi-65" value="" style="shape=waypoint;sketch=0;size=6;pointerEvents=1;points=[];fillColor=default;resizable=0;rotatable=0;perimeter=centerPerimeter;snapToPoint=1;rounded=1;" parent="1" vertex="1">
          <mxGeometry x="-820" y="280" width="20" height="20" as="geometry" />
        </mxCell>
        <mxCell id="-uAn8qLbP6gpHFIlixTi-73" value="" style="edgeStyle=orthogonalEdgeStyle;rounded=0;orthogonalLoop=1;jettySize=auto;html=1;" parent="1" source="-uAn8qLbP6gpHFIlixTi-67" target="-uAn8qLbP6gpHFIlixTi-72" edge="1">
          <mxGeometry relative="1" as="geometry" />
        </mxCell>
        <mxCell id="-uAn8qLbP6gpHFIlixTi-67" value="no" style="rhombus;whiteSpace=wrap;html=1;rounded=1;" parent="1" vertex="1">
          <mxGeometry x="-1180" y="110" width="80" height="80" as="geometry" />
        </mxCell>
        <mxCell id="-uAn8qLbP6gpHFIlixTi-72" value="end script" style="whiteSpace=wrap;html=1;rounded=1;" parent="1" vertex="1">
          <mxGeometry x="-1360" y="120" width="120" height="60" as="geometry" />
        </mxCell>
        <mxCell id="-uAn8qLbP6gpHFIlixTi-60" value="architecture" style="rounded=1;whiteSpace=wrap;html=1;fillColor=#fff2cc;strokeColor=#d6b656;fillOpacity=50;" parent="1" vertex="1">
          <mxGeometry x="-1410" y="65" width="760" height="565" as="geometry" />
        </mxCell>
        <mxCell id="-uAn8qLbP6gpHFIlixTi-34" value="" style="rounded=0;whiteSpace=wrap;html=1;fillColor=#f8cecc;strokeColor=#b85450;fillOpacity=50;" parent="1" vertex="1">
          <mxGeometry x="-1460" y="10" width="830" height="680" as="geometry" />
        </mxCell>
        <mxCell id="-uAn8qLbP6gpHFIlixTi-76" value="" style="edgeStyle=orthogonalEdgeStyle;rounded=0;orthogonalLoop=1;jettySize=auto;html=1;" parent="1" source="-uAn8qLbP6gpHFIlixTi-74" target="-uAn8qLbP6gpHFIlixTi-75" edge="1">
          <mxGeometry relative="1" as="geometry" />
        </mxCell>
        <mxCell id="-uAn8qLbP6gpHFIlixTi-78" value="" style="edgeStyle=orthogonalEdgeStyle;rounded=0;orthogonalLoop=1;jettySize=auto;html=1;" parent="1" source="-uAn8qLbP6gpHFIlixTi-74" target="-uAn8qLbP6gpHFIlixTi-77" edge="1">
          <mxGeometry relative="1" as="geometry" />
        </mxCell>
        <mxCell id="-uAn8qLbP6gpHFIlixTi-74" value="define variables" style="rounded=1;whiteSpace=wrap;html=1;" parent="1" vertex="1">
          <mxGeometry x="-1860" y="480" width="120" height="60" as="geometry" />
        </mxCell>
        <mxCell id="-uAn8qLbP6gpHFIlixTi-75" value="" style="shape=waypoint;sketch=0;size=6;pointerEvents=1;points=[];fillColor=default;resizable=0;rotatable=0;perimeter=centerPerimeter;snapToPoint=1;rounded=1;" parent="1" vertex="1">
          <mxGeometry x="-1130" y="550" width="20" height="20" as="geometry" />
        </mxCell>
        <mxCell id="-uAn8qLbP6gpHFIlixTi-77" value="call project files" style="whiteSpace=wrap;html=1;rounded=1;" parent="1" vertex="1">
          <mxGeometry x="-1860" y="340" width="120" height="60" as="geometry" />
        </mxCell>
        <mxCell id="-uAn8qLbP6gpHFIlixTi-79" value="script running" style="rounded=1;whiteSpace=wrap;html=1;fillColor=#d5e8d4;strokeColor=#82b366;fillOpacity=50;" parent="1" vertex="1">
          <mxGeometry x="-2000" y="130" width="420" height="460" as="geometry" />
        </mxCell>
        <mxCell id="-uAn8qLbP6gpHFIlixTi-80" value="ml brick" style="rounded=1;whiteSpace=wrap;html=1;fillColor=#dae8fc;strokeColor=#6c8ebf;fillOpacity=50;" parent="1" vertex="1">
          <mxGeometry x="510" y="405" width="380" height="220" as="geometry" />
        </mxCell>
        <mxCell id="-uAn8qLbP6gpHFIlixTi-81" value="ml brick" style="rounded=1;whiteSpace=wrap;html=1;fillColor=#dae8fc;strokeColor=#6c8ebf;fillOpacity=50;" parent="1" vertex="1">
          <mxGeometry x="930" y="420" width="130" height="220" as="geometry" />
        </mxCell>
        <mxCell id="-uAn8qLbP6gpHFIlixTi-82" value="" style="rounded=1;whiteSpace=wrap;html=1;fillColor=#dae8fc;strokeColor=#6c8ebf;fillOpacity=50;" parent="1" vertex="1">
          <mxGeometry x="930" y="300" width="130" height="125" as="geometry" />
        </mxCell>
        <mxCell id="-uAn8qLbP6gpHFIlixTi-83" value="" style="rounded=1;whiteSpace=wrap;html=1;fillColor=#dae8fc;strokeColor=#6c8ebf;fillOpacity=50;" parent="1" vertex="1">
          <mxGeometry x="120" y="300" width="837" height="90" as="geometry" />
        </mxCell>
        <mxCell id="-uAn8qLbP6gpHFIlixTi-88" value="" style="edgeStyle=orthogonalEdgeStyle;rounded=0;orthogonalLoop=1;jettySize=auto;html=1;" parent="1" source="-uAn8qLbP6gpHFIlixTi-85" target="-uAn8qLbP6gpHFIlixTi-87" edge="1">
          <mxGeometry relative="1" as="geometry" />
        </mxCell>
        <mxCell id="-uAn8qLbP6gpHFIlixTi-85" value="checking first word has a capital" style="whiteSpace=wrap;html=1;rounded=0;" parent="1" vertex="1">
          <mxGeometry x="-240" y="385" width="120" height="60" as="geometry" />
        </mxCell>
        <mxCell id="-uAn8qLbP6gpHFIlixTi-91" value="" style="edgeStyle=orthogonalEdgeStyle;rounded=0;orthogonalLoop=1;jettySize=auto;html=1;" parent="1" source="-uAn8qLbP6gpHFIlixTi-87" target="-uAn8qLbP6gpHFIlixTi-90" edge="1">
          <mxGeometry relative="1" as="geometry" />
        </mxCell>
        <mxCell id="-uAn8qLbP6gpHFIlixTi-87" value="checking for grammar like , &#39; &quot; usually used in mobile" style="whiteSpace=wrap;html=1;rounded=0;" parent="1" vertex="1">
          <mxGeometry x="-420" y="385" width="120" height="60" as="geometry" />
        </mxCell>
        <mxCell id="-uAn8qLbP6gpHFIlixTi-93" value="" style="edgeStyle=orthogonalEdgeStyle;rounded=0;orthogonalLoop=1;jettySize=auto;html=1;" parent="1" source="-uAn8qLbP6gpHFIlixTi-90" target="-uAn8qLbP6gpHFIlixTi-92" edge="1">
          <mxGeometry relative="1" as="geometry" />
        </mxCell>
        <mxCell id="wNgBqKrJrXNQtkTWV043-6" value="" style="edgeStyle=orthogonalEdgeStyle;rounded=0;orthogonalLoop=1;jettySize=auto;html=1;" parent="1" source="-uAn8qLbP6gpHFIlixTi-90" target="wNgBqKrJrXNQtkTWV043-5" edge="1">
          <mxGeometry relative="1" as="geometry" />
        </mxCell>
        <mxCell id="-uAn8qLbP6gpHFIlixTi-90" value="check for how the structure is made" style="whiteSpace=wrap;html=1;rounded=0;" parent="1" vertex="1">
          <mxGeometry x="-400" y="485" width="120" height="60" as="geometry" />
        </mxCell>
        <mxCell id="-uAn8qLbP6gpHFIlixTi-92" value="check for spelling" style="ellipse;whiteSpace=wrap;html=1;rounded=0;" parent="1" vertex="1">
          <mxGeometry x="-210" y="475" width="80" height="80" as="geometry" />
        </mxCell>
        <UserObject label="" link="https://forms.office.com/Pages/ResponsePage.aspx?id=DQSIkWdsW0yxEjajBLZtrQAAAAAAAAAAAAN__5ARDn1UNFc1OUUwRkFZQTBZTUpFVVMzQVBaSThDUi4u" id="-uAn8qLbP6gpHFIlixTi-94">
          <mxCell style="rounded=1;whiteSpace=wrap;html=1;fillColor=#dae8fc;strokeColor=#6c8ebf;fillOpacity=50;" parent="1" vertex="1">
            <mxGeometry x="-400" y="610" width="990" height="15" as="geometry" />
          </mxCell>
        </UserObject>
        <UserObject label="" link="https://forms.office.com/Pages/ResponsePage.aspx?id=DQSIkWdsW0yxEjajBLZtrQAAAAAAAAAAAAN__5ARDn1UNFc1OUUwRkFZQTBZTUpFVVMzQVBaSThDUi4u" id="-uAn8qLbP6gpHFIlixTi-95">
          <mxCell style="rounded=1;whiteSpace=wrap;html=1;fillColor=#dae8fc;strokeColor=#6c8ebf;fillOpacity=50;" parent="1" vertex="1">
            <mxGeometry x="-430" y="350" width="520" height="275" as="geometry" />
          </mxCell>
        </UserObject>
        <mxCell id="bzaOy03BoOf-onU58CRv-1" value="done" style="shape=tape;whiteSpace=wrap;html=1;fillColor=#60a917;fontColor=#ffffff;strokeColor=#2D7600;fillOpacity=50;" parent="1" vertex="1">
          <mxGeometry x="-740" y="130" width="120" height="100" as="geometry" />
        </mxCell>
        <mxCell id="bzaOy03BoOf-onU58CRv-2" value="done" style="shape=tape;whiteSpace=wrap;html=1;fillColor=#60a917;fontColor=#ffffff;strokeColor=#2D7600;fillOpacity=50;" parent="1" vertex="1">
          <mxGeometry x="740" y="505" width="120" height="100" as="geometry" />
        </mxCell>
        <mxCell id="bzaOy03BoOf-onU58CRv-3" value="done" style="shape=tape;whiteSpace=wrap;html=1;fillColor=#60a917;fontColor=#ffffff;strokeColor=#2D7600;fillOpacity=50;" parent="1" vertex="1">
          <mxGeometry x="1340" y="500" width="120" height="100" as="geometry" />
        </mxCell>
        <mxCell id="bzaOy03BoOf-onU58CRv-4" value="done" style="shape=tape;whiteSpace=wrap;html=1;fillColor=#60a917;fontColor=#ffffff;strokeColor=#2D7600;fillOpacity=50;" parent="1" vertex="1">
          <mxGeometry x="-240" y="370" width="120" height="100" as="geometry" />
        </mxCell>
        <mxCell id="bzaOy03BoOf-onU58CRv-5" value="done" style="shape=tape;whiteSpace=wrap;html=1;fillColor=#60a917;fontColor=#ffffff;strokeColor=#2D7600;fillOpacity=50;" parent="1" vertex="1">
          <mxGeometry x="-1370" y="100" width="620" height="100" as="geometry" />
        </mxCell>
        <mxCell id="wNgBqKrJrXNQtkTWV043-1" value="done" style="shape=tape;whiteSpace=wrap;html=1;fillColor=#60a917;fontColor=#ffffff;strokeColor=#2D7600;fillOpacity=50;" parent="1" vertex="1">
          <mxGeometry x="-420" y="365" width="120" height="100" as="geometry" />
        </mxCell>
        <mxCell id="wNgBqKrJrXNQtkTWV043-10" value="" style="edgeStyle=orthogonalEdgeStyle;rounded=0;orthogonalLoop=1;jettySize=auto;html=1;" parent="1" source="wNgBqKrJrXNQtkTWV043-5" target="wNgBqKrJrXNQtkTWV043-9" edge="1">
          <mxGeometry relative="1" as="geometry" />
        </mxCell>
        <mxCell id="wNgBqKrJrXNQtkTWV043-5" value="train ai" style="rounded=0;whiteSpace=wrap;html=1;" parent="1" vertex="1">
          <mxGeometry x="-400" y="660" width="120" height="60" as="geometry" />
        </mxCell>
        <mxCell id="wNgBqKrJrXNQtkTWV043-12" value="" style="edgeStyle=orthogonalEdgeStyle;rounded=0;orthogonalLoop=1;jettySize=auto;html=1;" parent="1" source="wNgBqKrJrXNQtkTWV043-9" target="wNgBqKrJrXNQtkTWV043-11" edge="1">
          <mxGeometry relative="1" as="geometry" />
        </mxCell>
        <mxCell id="wNgBqKrJrXNQtkTWV043-9" value="add 80&amp;gt;20 parameters (unsupervised 20%, 80% supervised)." style="rounded=0;whiteSpace=wrap;html=1;" parent="1" vertex="1">
          <mxGeometry x="-400" y="790" width="120" height="60" as="geometry" />
        </mxCell>
        <mxCell id="wNgBqKrJrXNQtkTWV043-14" value="" style="edgeStyle=orthogonalEdgeStyle;rounded=0;orthogonalLoop=1;jettySize=auto;html=1;" parent="1" source="wNgBqKrJrXNQtkTWV043-11" target="wNgBqKrJrXNQtkTWV043-13" edge="1">
          <mxGeometry relative="1" as="geometry" />
        </mxCell>
        <mxCell id="wNgBqKrJrXNQtkTWV043-11" value="write to file" style="rounded=0;whiteSpace=wrap;html=1;" parent="1" vertex="1">
          <mxGeometry x="-400" y="900" width="120" height="60" as="geometry" />
        </mxCell>
        <mxCell id="wNgBqKrJrXNQtkTWV043-16" value="" style="edgeStyle=orthogonalEdgeStyle;rounded=0;orthogonalLoop=1;jettySize=auto;html=1;" parent="1" source="wNgBqKrJrXNQtkTWV043-13" target="wNgBqKrJrXNQtkTWV043-15" edge="1">
          <mxGeometry relative="1" as="geometry" />
        </mxCell>
        <mxCell id="wNgBqKrJrXNQtkTWV043-13" value="compare file to input" style="rounded=0;whiteSpace=wrap;html=1;" parent="1" vertex="1">
          <mxGeometry x="-200" y="900" width="120" height="60" as="geometry" />
        </mxCell>
        <mxCell id="wNgBqKrJrXNQtkTWV043-18" value="" style="edgeStyle=orthogonalEdgeStyle;rounded=0;orthogonalLoop=1;jettySize=auto;html=1;" parent="1" source="wNgBqKrJrXNQtkTWV043-15" target="wNgBqKrJrXNQtkTWV043-17" edge="1">
          <mxGeometry relative="1" as="geometry" />
        </mxCell>
        <mxCell id="wNgBqKrJrXNQtkTWV043-20" value="" style="edgeStyle=orthogonalEdgeStyle;rounded=0;orthogonalLoop=1;jettySize=auto;html=1;" parent="1" source="wNgBqKrJrXNQtkTWV043-15" target="wNgBqKrJrXNQtkTWV043-19" edge="1">
          <mxGeometry relative="1" as="geometry" />
        </mxCell>
        <mxCell id="wNgBqKrJrXNQtkTWV043-15" value="similarities?" style="whiteSpace=wrap;html=1;rounded=0;" parent="1" vertex="1">
          <mxGeometry x="-200" y="760" width="120" height="60" as="geometry" />
        </mxCell>
        <mxCell id="wNgBqKrJrXNQtkTWV043-24" value="" style="edgeStyle=orthogonalEdgeStyle;rounded=0;orthogonalLoop=1;jettySize=auto;html=1;" parent="1" source="wNgBqKrJrXNQtkTWV043-17" target="wNgBqKrJrXNQtkTWV043-23" edge="1">
          <mxGeometry relative="1" as="geometry" />
        </mxCell>
        <mxCell id="wNgBqKrJrXNQtkTWV043-17" value="yes" style="whiteSpace=wrap;html=1;rounded=0;" parent="1" vertex="1">
          <mxGeometry y="760" width="120" height="60" as="geometry" />
        </mxCell>
        <mxCell id="wNgBqKrJrXNQtkTWV043-19" value="no" style="whiteSpace=wrap;html=1;rounded=0;" parent="1" vertex="1">
          <mxGeometry x="-200" y="660" width="120" height="60" as="geometry" />
        </mxCell>
        <mxCell id="wNgBqKrJrXNQtkTWV043-22" value="" style="endArrow=classic;html=1;rounded=0;" parent="1" target="-uAn8qLbP6gpHFIlixTi-92" edge="1">
          <mxGeometry width="50" height="50" relative="1" as="geometry">
            <mxPoint x="-160" y="690" as="sourcePoint" />
            <mxPoint x="-110" y="640" as="targetPoint" />
          </mxGeometry>
        </mxCell>
        <mxCell id="wNgBqKrJrXNQtkTWV043-27" value="" style="edgeStyle=orthogonalEdgeStyle;rounded=0;orthogonalLoop=1;jettySize=auto;html=1;" parent="1" source="wNgBqKrJrXNQtkTWV043-23" target="wNgBqKrJrXNQtkTWV043-26" edge="1">
          <mxGeometry relative="1" as="geometry" />
        </mxCell>
        <mxCell id="wNgBqKrJrXNQtkTWV043-23" value="points update by 1.5* [other]" style="whiteSpace=wrap;html=1;rounded=0;" parent="1" vertex="1">
          <mxGeometry y="900" width="120" height="60" as="geometry" />
        </mxCell>
        <mxCell id="wNgBqKrJrXNQtkTWV043-29" value="" style="edgeStyle=orthogonalEdgeStyle;rounded=0;orthogonalLoop=1;jettySize=auto;html=1;" parent="1" source="wNgBqKrJrXNQtkTWV043-26" target="wNgBqKrJrXNQtkTWV043-28" edge="1">
          <mxGeometry relative="1" as="geometry" />
        </mxCell>
        <mxCell id="wNgBqKrJrXNQtkTWV043-26" value="" style="shape=waypoint;sketch=0;size=6;pointerEvents=1;points=[];fillColor=default;resizable=0;rotatable=0;perimeter=centerPerimeter;snapToPoint=1;rounded=0;" parent="1" vertex="1">
          <mxGeometry x="250" y="920" width="20" height="20" as="geometry" />
        </mxCell>
        <mxCell id="wNgBqKrJrXNQtkTWV043-31" value="" style="edgeStyle=orthogonalEdgeStyle;rounded=0;orthogonalLoop=1;jettySize=auto;html=1;" parent="1" source="1K-txp--64s6BpRaUo6k-13" target="wNgBqKrJrXNQtkTWV043-30" edge="1">
          <mxGeometry relative="1" as="geometry" />
        </mxCell>
        <mxCell id="wNgBqKrJrXNQtkTWV043-28" value="" style="shape=waypoint;sketch=0;size=6;pointerEvents=1;points=[];fillColor=default;resizable=0;rotatable=0;perimeter=centerPerimeter;snapToPoint=1;rounded=0;" parent="1" vertex="1">
          <mxGeometry x="250" y="690" width="20" height="20" as="geometry" />
        </mxCell>
        <mxCell id="wNgBqKrJrXNQtkTWV043-30" value="" style="shape=waypoint;sketch=0;size=6;pointerEvents=1;points=[];fillColor=default;resizable=0;rotatable=0;perimeter=centerPerimeter;snapToPoint=1;rounded=0;" parent="1" vertex="1">
          <mxGeometry x="-180" y="535" width="20" height="20" as="geometry" />
        </mxCell>
        <mxCell id="wNgBqKrJrXNQtkTWV043-32" value="done" style="shape=tape;whiteSpace=wrap;html=1;fillColor=#60a917;fontColor=#ffffff;strokeColor=#2D7600;fillOpacity=50;" parent="1" vertex="1">
          <mxGeometry x="-400" y="770" width="120" height="100" as="geometry" />
        </mxCell>
        <mxCell id="wNgBqKrJrXNQtkTWV043-33" value="done" style="shape=tape;whiteSpace=wrap;html=1;fillColor=#60a917;fontColor=#ffffff;strokeColor=#2D7600;fillOpacity=50;" parent="1" vertex="1">
          <mxGeometry x="-400" y="880" width="120" height="100" as="geometry" />
        </mxCell>
        <mxCell id="1K-txp--64s6BpRaUo6k-1" value="read and prepare data" style="rounded=0;whiteSpace=wrap;html=1;" parent="1" vertex="1">
          <mxGeometry x="-290" y="1000" width="120" height="60" as="geometry" />
        </mxCell>
        <mxCell id="1K-txp--64s6BpRaUo6k-2" value="" style="endArrow=classic;html=1;rounded=0;entryX=0.433;entryY=0.017;entryDx=0;entryDy=0;entryPerimeter=0;" parent="1" target="1K-txp--64s6BpRaUo6k-1" edge="1">
          <mxGeometry width="50" height="50" relative="1" as="geometry">
            <mxPoint x="-240" y="930" as="sourcePoint" />
            <mxPoint x="-190" y="880" as="targetPoint" />
          </mxGeometry>
        </mxCell>
        <mxCell id="1K-txp--64s6BpRaUo6k-3" value="done" style="shape=tape;whiteSpace=wrap;html=1;fillColor=#60a917;fontColor=#ffffff;strokeColor=#2D7600;fillOpacity=50;" parent="1" vertex="1">
          <mxGeometry x="-290" y="980" width="120" height="100" as="geometry" />
        </mxCell>
        <mxCell id="1K-txp--64s6BpRaUo6k-8" value="" style="edgeStyle=orthogonalEdgeStyle;rounded=0;orthogonalLoop=1;jettySize=auto;html=1;" parent="1" source="1K-txp--64s6BpRaUo6k-4" target="1K-txp--64s6BpRaUo6k-7" edge="1">
          <mxGeometry relative="1" as="geometry" />
        </mxCell>
        <mxCell id="1K-txp--64s6BpRaUo6k-4" value="feature engineering" style="rounded=1;whiteSpace=wrap;html=1;" parent="1" vertex="1">
          <mxGeometry x="350" y="810" width="120" height="60" as="geometry" />
        </mxCell>
        <mxCell id="1K-txp--64s6BpRaUo6k-6" value="" style="endArrow=classic;html=1;rounded=0;" parent="1" target="1K-txp--64s6BpRaUo6k-4" edge="1">
          <mxGeometry width="50" height="50" relative="1" as="geometry">
            <mxPoint x="260" y="830" as="sourcePoint" />
            <mxPoint x="310" y="780" as="targetPoint" />
          </mxGeometry>
        </mxCell>
        <mxCell id="1K-txp--64s6BpRaUo6k-10" value="" style="edgeStyle=orthogonalEdgeStyle;rounded=0;orthogonalLoop=1;jettySize=auto;html=1;" parent="1" source="1K-txp--64s6BpRaUo6k-19" target="1K-txp--64s6BpRaUo6k-9" edge="1">
          <mxGeometry relative="1" as="geometry" />
        </mxCell>
        <mxCell id="xgk7n23RHjV2fsw4WpJe-2" value="" style="edgeStyle=orthogonalEdgeStyle;rounded=0;orthogonalLoop=1;jettySize=auto;html=1;" parent="1" source="1K-txp--64s6BpRaUo6k-7" target="xgk7n23RHjV2fsw4WpJe-1" edge="1">
          <mxGeometry relative="1" as="geometry" />
        </mxCell>
        <mxCell id="1K-txp--64s6BpRaUo6k-7" value="word n-grams" style="whiteSpace=wrap;html=1;rounded=1;" parent="1" vertex="1">
          <mxGeometry x="350" y="950" width="120" height="60" as="geometry" />
        </mxCell>
        <mxCell id="1K-txp--64s6BpRaUo6k-12" value="" style="edgeStyle=orthogonalEdgeStyle;rounded=0;orthogonalLoop=1;jettySize=auto;html=1;" parent="1" source="1K-txp--64s6BpRaUo6k-9" target="1K-txp--64s6BpRaUo6k-11" edge="1">
          <mxGeometry relative="1" as="geometry" />
        </mxCell>
        <mxCell id="1K-txp--64s6BpRaUo6k-9" value="update points" style="whiteSpace=wrap;html=1;rounded=1;" parent="1" vertex="1">
          <mxGeometry x="350" y="1280" width="120" height="60" as="geometry" />
        </mxCell>
        <mxCell id="1K-txp--64s6BpRaUo6k-14" value="" style="edgeStyle=orthogonalEdgeStyle;rounded=0;orthogonalLoop=1;jettySize=auto;html=1;" parent="1" source="1K-txp--64s6BpRaUo6k-11" target="1K-txp--64s6BpRaUo6k-13" edge="1">
          <mxGeometry relative="1" as="geometry" />
        </mxCell>
        <mxCell id="1K-txp--64s6BpRaUo6k-11" value="" style="shape=waypoint;sketch=0;size=6;pointerEvents=1;points=[];fillColor=default;resizable=0;rotatable=0;perimeter=centerPerimeter;snapToPoint=1;rounded=1;" parent="1" vertex="1">
          <mxGeometry x="200" y="1210" width="20" height="20" as="geometry" />
        </mxCell>
        <mxCell id="1K-txp--64s6BpRaUo6k-15" value="" style="edgeStyle=orthogonalEdgeStyle;rounded=0;orthogonalLoop=1;jettySize=auto;html=1;" parent="1" source="wNgBqKrJrXNQtkTWV043-28" target="1K-txp--64s6BpRaUo6k-13" edge="1">
          <mxGeometry relative="1" as="geometry">
            <mxPoint x="260" y="700" as="sourcePoint" />
            <mxPoint x="-170" y="545" as="targetPoint" />
          </mxGeometry>
        </mxCell>
        <mxCell id="1K-txp--64s6BpRaUo6k-13" value="" style="shape=waypoint;sketch=0;size=6;pointerEvents=1;points=[];fillColor=default;resizable=0;rotatable=0;perimeter=centerPerimeter;snapToPoint=1;rounded=1;" parent="1" vertex="1">
          <mxGeometry x="200" y="685" width="20" height="20" as="geometry" />
        </mxCell>
        <mxCell id="1K-txp--64s6BpRaUo6k-18" value="" style="edgeStyle=orthogonalEdgeStyle;rounded=0;orthogonalLoop=1;jettySize=auto;html=1;" parent="1" source="1K-txp--64s6BpRaUo6k-7" target="1K-txp--64s6BpRaUo6k-19" edge="1">
          <mxGeometry relative="1" as="geometry">
            <mxPoint x="410" y="1010" as="sourcePoint" />
            <mxPoint x="410" y="1280" as="targetPoint" />
          </mxGeometry>
        </mxCell>
        <mxCell id="1K-txp--64s6BpRaUo6k-19" value="character n-grams" style="rounded=1;whiteSpace=wrap;html=1;" parent="1" vertex="1">
          <mxGeometry x="350" y="1140" width="120" height="60" as="geometry" />
        </mxCell>
        <mxCell id="1K-txp--64s6BpRaUo6k-17" value="&lt;span style=&quot;--tw-border-spacing-x: 0; --tw-border-spacing-y: 0; --tw-translate-x: 0; --tw-translate-y: 0; --tw-rotate: 0; --tw-skew-x: 0; --tw-skew-y: 0; --tw-scale-x: 1; --tw-scale-y: 1; --tw-pan-x: ; --tw-pan-y: ; --tw-pinch-zoom: ; --tw-scroll-snap-strictness: proximity; --tw-gradient-from-position: ; --tw-gradient-via-position: ; --tw-gradient-to-position: ; --tw-ordinal: ; --tw-slashed-zero: ; --tw-numeric-figure: ; --tw-numeric-spacing: ; --tw-numeric-fraction: ; --tw-ring-inset: ; --tw-ring-offset-width: 0px; --tw-ring-offset-color: #fff; --tw-ring-color: rgb(59 130 246 / .5); --tw-ring-offset-shadow: 0 0 #0000; --tw-ring-shadow: 0 0 #0000; --tw-shadow: 0 0 #0000; --tw-shadow-colored: 0 0 #0000; --tw-blur: ; --tw-brightness: ; --tw-contrast: ; --tw-grayscale: ; --tw-hue-rotate: ; --tw-invert: ; --tw-saturate: ; --tw-sepia: ; --tw-drop-shadow: ; --tw-backdrop-blur: ; --tw-backdrop-brightness: ; --tw-backdrop-contrast: ; --tw-backdrop-grayscale: ; --tw-backdrop-hue-rotate: ; --tw-backdrop-invert: ; --tw-backdrop-opacity: ; --tw-backdrop-saturate: ; --tw-backdrop-sepia: ; --tw-contain-size: ; --tw-contain-layout: ; --tw-contain-paint: ; --tw-contain-style: ; box-sizing: border-box; border-width: 0px; border-style: solid; border-color: currentcolor; font-weight: bolder; color: rgb(151, 159, 173); font-family: Roboto; text-align: left; background-color: rgb(40, 44, 52);&quot;&gt;TF-IDF (Term Frequency-Inverse Document Frequency)&lt;/span&gt;" style="rounded=1;whiteSpace=wrap;html=1;" parent="1" vertex="1">
          <mxGeometry x="350" y="1030" width="120" height="60" as="geometry" />
        </mxCell>
        <mxCell id="1K-txp--64s6BpRaUo6k-21" value="AI (top layer)" style="rounded=1;whiteSpace=wrap;html=1;fillColor=#d80073;fontColor=#ffffff;strokeColor=#A50040;fillOpacity=50;" parent="1" vertex="1">
          <mxGeometry x="-500" y="355" width="620" height="210" as="geometry" />
        </mxCell>
        <mxCell id="2mOvRdaZIYywu_mcoboF-1" value="" style="endArrow=classic;html=1;rounded=0;" parent="1" edge="1">
          <mxGeometry width="50" height="50" relative="1" as="geometry">
            <mxPoint x="-240" y="930" as="sourcePoint" />
            <mxPoint x="-80" y="1040" as="targetPoint" />
          </mxGeometry>
        </mxCell>
        <mxCell id="2mOvRdaZIYywu_mcoboF-2" value="add to list" style="rounded=0;whiteSpace=wrap;html=1;" parent="1" vertex="1">
          <mxGeometry x="-80" y="1020" width="120" height="60" as="geometry" />
        </mxCell>
        <mxCell id="2mOvRdaZIYywu_mcoboF-4" value="compare labels" style="rounded=1;whiteSpace=wrap;html=1;" parent="1" vertex="1">
          <mxGeometry x="80" y="1110" width="120" height="60" as="geometry" />
        </mxCell>
        <mxCell id="2mOvRdaZIYywu_mcoboF-5" value="" style="endArrow=classic;html=1;rounded=0;entryX=0.5;entryY=0;entryDx=0;entryDy=0;" parent="1" target="2mOvRdaZIYywu_mcoboF-4" edge="1">
          <mxGeometry width="50" height="50" relative="1" as="geometry">
            <mxPoint x="-80" y="930" as="sourcePoint" />
            <mxPoint x="-30" y="880" as="targetPoint" />
          </mxGeometry>
        </mxCell>
        <mxCell id="2mOvRdaZIYywu_mcoboF-6" value="" style="endArrow=classic;html=1;rounded=0;" parent="1" edge="1">
          <mxGeometry width="50" height="50" relative="1" as="geometry">
            <mxPoint x="-400" y="700" as="sourcePoint" />
            <mxPoint x="-490" y="700" as="targetPoint" />
          </mxGeometry>
        </mxCell>
        <mxCell id="2mOvRdaZIYywu_mcoboF-7" value="locally" style="rounded=1;whiteSpace=wrap;html=1;" parent="1" vertex="1">
          <mxGeometry x="-600" y="670" width="120" height="60" as="geometry" />
        </mxCell>
        <mxCell id="2mOvRdaZIYywu_mcoboF-8" value="text + dll files" style="rounded=1;whiteSpace=wrap;html=1;" parent="1" vertex="1">
          <mxGeometry x="-600" y="790" width="120" height="60" as="geometry" />
        </mxCell>
        <mxCell id="2mOvRdaZIYywu_mcoboF-9" value="" style="endArrow=classic;html=1;rounded=0;entryX=0.417;entryY=0.017;entryDx=0;entryDy=0;entryPerimeter=0;" parent="1" target="2mOvRdaZIYywu_mcoboF-8" edge="1">
          <mxGeometry width="50" height="50" relative="1" as="geometry">
            <mxPoint x="-550" y="730" as="sourcePoint" />
            <mxPoint x="-500" y="680" as="targetPoint" />
          </mxGeometry>
        </mxCell>
        <mxCell id="2mOvRdaZIYywu_mcoboF-10" value="" style="endArrow=classic;html=1;rounded=0;" parent="1" edge="1">
          <mxGeometry width="50" height="50" relative="1" as="geometry">
            <mxPoint x="30" y="1090" as="sourcePoint" />
            <mxPoint x="20" y="1370" as="targetPoint" />
          </mxGeometry>
        </mxCell>
        <mxCell id="2mOvRdaZIYywu_mcoboF-11" value="" style="endArrow=classic;html=1;rounded=0;" parent="1" source="1K-txp--64s6BpRaUo6k-9" edge="1">
          <mxGeometry width="50" height="50" relative="1" as="geometry">
            <mxPoint x="290" y="1350" as="sourcePoint" />
            <mxPoint x="40" y="1370" as="targetPoint" />
          </mxGeometry>
        </mxCell>
        <mxCell id="2mOvRdaZIYywu_mcoboF-13" value="" style="endArrow=classic;html=1;rounded=0;" parent="1" target="2mOvRdaZIYywu_mcoboF-14" edge="1">
          <mxGeometry width="50" height="50" relative="1" as="geometry">
            <mxPoint x="-20" y="1409.5" as="sourcePoint" />
            <mxPoint x="-260" y="1409.5" as="targetPoint" />
          </mxGeometry>
        </mxCell>
        <mxCell id="2mOvRdaZIYywu_mcoboF-18" value="" style="edgeStyle=orthogonalEdgeStyle;rounded=0;orthogonalLoop=1;jettySize=auto;html=1;" parent="1" source="1K-txp--64s6BpRaUo6k-16" target="2mOvRdaZIYywu_mcoboF-15" edge="1">
          <mxGeometry relative="1" as="geometry" />
        </mxCell>
        <mxCell id="2mOvRdaZIYywu_mcoboF-14" value="to do list:" style="rounded=1;whiteSpace=wrap;html=1;" parent="1" vertex="1">
          <mxGeometry x="-500" y="1380" width="120" height="60" as="geometry" />
        </mxCell>
        <mxCell id="2mOvRdaZIYywu_mcoboF-17" value="" style="edgeStyle=orthogonalEdgeStyle;rounded=0;orthogonalLoop=1;jettySize=auto;html=1;" parent="1" source="2mOvRdaZIYywu_mcoboF-15" target="2mOvRdaZIYywu_mcoboF-16" edge="1">
          <mxGeometry relative="1" as="geometry" />
        </mxCell>
        <mxCell id="2mOvRdaZIYywu_mcoboF-15" value="use sck for feature engineering" style="rounded=1;whiteSpace=wrap;html=1;" parent="1" vertex="1">
          <mxGeometry x="-500" y="1500" width="120" height="60" as="geometry" />
        </mxCell>
        <mxCell id="k6QnlVLuarrKSr87sq0K-2" value="" style="edgeStyle=orthogonalEdgeStyle;rounded=0;orthogonalLoop=1;jettySize=auto;html=1;" parent="1" source="2mOvRdaZIYywu_mcoboF-16" target="k6QnlVLuarrKSr87sq0K-1" edge="1">
          <mxGeometry relative="1" as="geometry" />
        </mxCell>
        <mxCell id="k6QnlVLuarrKSr87sq0K-4" value="" style="edgeStyle=orthogonalEdgeStyle;rounded=0;orthogonalLoop=1;jettySize=auto;html=1;" parent="1" source="2mOvRdaZIYywu_mcoboF-16" target="k6QnlVLuarrKSr87sq0K-3" edge="1">
          <mxGeometry relative="1" as="geometry" />
        </mxCell>
        <mxCell id="2mOvRdaZIYywu_mcoboF-16" value="develop an ml model for grammar structure and basic statements." style="rounded=1;whiteSpace=wrap;html=1;" parent="1" vertex="1">
          <mxGeometry x="-300" y="1500" width="120" height="60" as="geometry" />
        </mxCell>
        <mxCell id="2mOvRdaZIYywu_mcoboF-19" value="" style="endArrow=classic;html=1;rounded=0;" parent="1" edge="1">
          <mxGeometry width="50" height="50" relative="1" as="geometry">
            <mxPoint x="470" y="850" as="sourcePoint" />
            <mxPoint x="540" y="850" as="targetPoint" />
          </mxGeometry>
        </mxCell>
        <mxCell id="2mOvRdaZIYywu_mcoboF-20" value="" style="endArrow=classic;html=1;rounded=0;" parent="1" edge="1">
          <mxGeometry width="50" height="50" relative="1" as="geometry">
            <mxPoint x="530" y="850" as="sourcePoint" />
            <mxPoint x="510" y="1600" as="targetPoint" />
          </mxGeometry>
        </mxCell>
        <mxCell id="2mOvRdaZIYywu_mcoboF-21" value="" style="endArrow=classic;html=1;rounded=0;" parent="1" edge="1">
          <mxGeometry width="50" height="50" relative="1" as="geometry">
            <mxPoint x="510" y="1600" as="sourcePoint" />
            <mxPoint x="-440" y="1600" as="targetPoint" />
          </mxGeometry>
        </mxCell>
        <mxCell id="2mOvRdaZIYywu_mcoboF-22" value="" style="endArrow=classic;html=1;rounded=0;entryX=0.633;entryY=0.983;entryDx=0;entryDy=0;entryPerimeter=0;" parent="1" target="2mOvRdaZIYywu_mcoboF-15" edge="1">
          <mxGeometry width="50" height="50" relative="1" as="geometry">
            <mxPoint x="-430" y="1600" as="sourcePoint" />
            <mxPoint x="-380" y="1550" as="targetPoint" />
          </mxGeometry>
        </mxCell>
        <mxCell id="2mOvRdaZIYywu_mcoboF-12" value="proper ml model&lt;div&gt;&lt;br&gt;&lt;/div&gt;" style="rounded=1;whiteSpace=wrap;html=1;" parent="1" vertex="1">
          <mxGeometry x="-30" y="1370" width="120" height="60" as="geometry" />
        </mxCell>
        <mxCell id="2mOvRdaZIYywu_mcoboF-23" value="done" style="shape=tape;whiteSpace=wrap;html=1;fillColor=#60a917;fontColor=#ffffff;strokeColor=#2D7600;fillOpacity=50;" parent="1" vertex="1">
          <mxGeometry x="-80" y="1000" width="120" height="100" as="geometry" />
        </mxCell>
        <mxCell id="xgk7n23RHjV2fsw4WpJe-1" value="label new data for sk" style="rounded=1;whiteSpace=wrap;html=1;" parent="1" vertex="1">
          <mxGeometry x="200" y="950" width="120" height="60" as="geometry" />
        </mxCell>
        <mxCell id="xgk7n23RHjV2fsw4WpJe-3" value="done" style="shape=tape;whiteSpace=wrap;html=1;fillColor=#60a917;fontColor=#ffffff;strokeColor=#2D7600;fillOpacity=50;" parent="1" vertex="1">
          <mxGeometry x="200" y="930" width="120" height="100" as="geometry" />
        </mxCell>
        <mxCell id="xgk7n23RHjV2fsw4WpJe-4" value="done" style="shape=tape;whiteSpace=wrap;html=1;fillColor=#60a917;fontColor=#ffffff;strokeColor=#2D7600;fillOpacity=50;" parent="1" vertex="1">
          <mxGeometry x="-600" y="645" width="120" height="245" as="geometry" />
        </mxCell>
        <mxCell id="xgk7n23RHjV2fsw4WpJe-5" value="done" style="shape=tape;whiteSpace=wrap;html=1;fillColor=#60a917;fontColor=#ffffff;strokeColor=#2D7600;fillOpacity=50;" parent="1" vertex="1">
          <mxGeometry x="120" y="370" width="120" height="100" as="geometry" />
        </mxCell>
        <mxCell id="-uAn8qLbP6gpHFIlixTi-84" value="" style="rounded=1;whiteSpace=wrap;html=1;fillColor=#dae8fc;strokeColor=#6c8ebf;fillOpacity=50;" parent="1" vertex="1">
          <mxGeometry x="120" y="350" width="270" height="140" as="geometry" />
        </mxCell>
        <mxCell id="VBpKpfMw9fqPL1ekknt6-1" value="" style="edgeStyle=orthogonalEdgeStyle;rounded=0;orthogonalLoop=1;jettySize=auto;html=1;" parent="1" source="2mOvRdaZIYywu_mcoboF-14" target="1K-txp--64s6BpRaUo6k-16" edge="1">
          <mxGeometry relative="1" as="geometry">
            <mxPoint x="-440" y="1440" as="sourcePoint" />
            <mxPoint x="-440" y="1500" as="targetPoint" />
          </mxGeometry>
        </mxCell>
        <mxCell id="1K-txp--64s6BpRaUo6k-16" value="ml brick" style="rounded=1;whiteSpace=wrap;html=1;fillColor=#dae8fc;strokeColor=#6c8ebf;fillOpacity=50;" parent="1" vertex="1">
          <mxGeometry x="200" y="755" width="275" height="610" as="geometry" />
        </mxCell>
        <mxCell id="VBpKpfMw9fqPL1ekknt6-2" value="done" style="shape=tape;whiteSpace=wrap;html=1;fillColor=#60a917;fontColor=#ffffff;strokeColor=#2D7600;fillOpacity=50;" parent="1" vertex="1">
          <mxGeometry x="350" y="790" width="120" height="100" as="geometry" />
        </mxCell>
        <mxCell id="VBpKpfMw9fqPL1ekknt6-3" value="done" style="shape=tape;whiteSpace=wrap;html=1;fillColor=#60a917;fontColor=#ffffff;strokeColor=#2D7600;fillOpacity=50;" parent="1" vertex="1">
          <mxGeometry x="340" y="930" width="120" height="100" as="geometry" />
        </mxCell>
        <mxCell id="VBpKpfMw9fqPL1ekknt6-4" value="done" style="shape=tape;whiteSpace=wrap;html=1;fillColor=#60a917;fontColor=#ffffff;strokeColor=#2D7600;fillOpacity=50;" parent="1" vertex="1">
          <mxGeometry x="350" y="1020" width="120" height="100" as="geometry" />
        </mxCell>
        <mxCell id="VBpKpfMw9fqPL1ekknt6-5" value="done" style="shape=tape;whiteSpace=wrap;html=1;fillColor=#60a917;fontColor=#ffffff;strokeColor=#2D7600;fillOpacity=50;" parent="1" vertex="1">
          <mxGeometry x="350" y="1130" width="120" height="100" as="geometry" />
        </mxCell>
        <mxCell id="VBpKpfMw9fqPL1ekknt6-6" value="done" style="shape=tape;whiteSpace=wrap;html=1;fillColor=#60a917;fontColor=#ffffff;strokeColor=#2D7600;fillOpacity=50;" parent="1" vertex="1">
          <mxGeometry x="-500" y="1490" width="120" height="100" as="geometry" />
        </mxCell>
        <mxCell id="cR2-OPdmNKgw4fo01EUw-1" value="done" style="shape=tape;whiteSpace=wrap;html=1;fillColor=#60a917;fontColor=#ffffff;strokeColor=#2D7600;fillOpacity=50;" parent="1" vertex="1">
          <mxGeometry x="350" y="1260" width="120" height="100" as="geometry" />
        </mxCell>
        <mxCell id="vf2rE9fq36kAkRdHiZtq-1" value="done" style="shape=tape;whiteSpace=wrap;html=1;fillColor=#60a917;fontColor=#ffffff;strokeColor=#2D7600;fillOpacity=50;" parent="1" vertex="1">
          <mxGeometry x="-200" y="880" width="120" height="100" as="geometry" />
        </mxCell>
        <mxCell id="vf2rE9fq36kAkRdHiZtq-2" value="done" style="shape=tape;whiteSpace=wrap;html=1;fillColor=#60a917;fontColor=#ffffff;strokeColor=#2D7600;fillOpacity=50;" parent="1" vertex="1">
          <mxGeometry x="-200" y="740" width="120" height="100" as="geometry" />
        </mxCell>
        <mxCell id="vf2rE9fq36kAkRdHiZtq-3" value="done" style="shape=tape;whiteSpace=wrap;html=1;fillColor=#60a917;fontColor=#ffffff;strokeColor=#2D7600;fillOpacity=50;" parent="1" vertex="1">
          <mxGeometry x="-200" y="645" width="120" height="100" as="geometry" />
        </mxCell>
        <mxCell id="vf2rE9fq36kAkRdHiZtq-4" value="done" style="shape=tape;whiteSpace=wrap;html=1;fillColor=#60a917;fontColor=#ffffff;strokeColor=#2D7600;fillOpacity=50;" parent="1" vertex="1">
          <mxGeometry y="740" width="120" height="100" as="geometry" />
        </mxCell>
        <mxCell id="vf2rE9fq36kAkRdHiZtq-5" value="done" style="shape=tape;whiteSpace=wrap;html=1;fillColor=#60a917;fontColor=#ffffff;strokeColor=#2D7600;fillOpacity=50;" parent="1" vertex="1">
          <mxGeometry y="880" width="120" height="100" as="geometry" />
        </mxCell>
        <mxCell id="vf2rE9fq36kAkRdHiZtq-6" value="done" style="shape=tape;whiteSpace=wrap;html=1;fillColor=#60a917;fontColor=#ffffff;strokeColor=#2D7600;fillOpacity=50;" parent="1" vertex="1">
          <mxGeometry x="80" y="1090" width="120" height="100" as="geometry" />
        </mxCell>
        <mxCell id="vf2rE9fq36kAkRdHiZtq-7" value="done" style="shape=tape;whiteSpace=wrap;html=1;fillColor=#60a917;fontColor=#ffffff;strokeColor=#2D7600;fillOpacity=50;" parent="1" vertex="1">
          <mxGeometry x="-400" y="640" width="120" height="100" as="geometry" />
        </mxCell>
        <mxCell id="vf2rE9fq36kAkRdHiZtq-8" value="done" style="shape=tape;whiteSpace=wrap;html=1;fillColor=#60a917;fontColor=#ffffff;strokeColor=#2D7600;fillOpacity=50;" parent="1" vertex="1">
          <mxGeometry x="-30" y="1350" width="120" height="100" as="geometry" />
        </mxCell>
        <mxCell id="wNgBqKrJrXNQtkTWV043-25" value="ml brick" style="rounded=1;whiteSpace=wrap;html=1;fillColor=#dae8fc;strokeColor=#6c8ebf;fillOpacity=50;" parent="1" vertex="1">
          <mxGeometry x="-640" y="625" width="750" height="440" as="geometry" />
        </mxCell>
        <mxCell id="k6QnlVLuarrKSr87sq0K-1" value="new file + spelling module" style="whiteSpace=wrap;html=1;rounded=1;" parent="1" vertex="1">
          <mxGeometry x="-300" y="1420" width="120" height="60" as="geometry" />
        </mxCell>
        <mxCell id="k6QnlVLuarrKSr87sq0K-6" value="" style="edgeStyle=orthogonalEdgeStyle;rounded=0;orthogonalLoop=1;jettySize=auto;html=1;" parent="1" source="k6QnlVLuarrKSr87sq0K-3" target="k6QnlVLuarrKSr87sq0K-5" edge="1">
          <mxGeometry relative="1" as="geometry" />
        </mxCell>
        <mxCell id="k6QnlVLuarrKSr87sq0K-3" value="add a majority output to show the majority of users (desktop or mobile(other))" style="whiteSpace=wrap;html=1;rounded=1;" parent="1" vertex="1">
          <mxGeometry x="-100" y="1500" width="120" height="60" as="geometry" />
        </mxCell>
        <mxCell id="k6QnlVLuarrKSr87sq0K-5" value="ai func. 2" style="rhombus;whiteSpace=wrap;html=1;rounded=1;" parent="1" vertex="1">
          <mxGeometry x="-80" y="1600" width="80" height="80" as="geometry" />
        </mxCell>
        <mxCell id="OIBakOl0aCcwzjcW4kIF-1" value="" style="endArrow=classic;html=1;rounded=0;entryX=0.5;entryY=0.1;entryDx=0;entryDy=0;entryPerimeter=0;exitX=0.883;exitY=0.983;exitDx=0;exitDy=0;exitPerimeter=0;" parent="1" source="2mOvRdaZIYywu_mcoboF-14" target="OIBakOl0aCcwzjcW4kIF-2" edge="1">
          <mxGeometry width="50" height="50" relative="1" as="geometry">
            <mxPoint x="250" y="1600" as="sourcePoint" />
            <mxPoint x="250" y="1720" as="targetPoint" />
          </mxGeometry>
        </mxCell>
        <mxCell id="OIBakOl0aCcwzjcW4kIF-2" value="seperate code for functions (ai) into modules" style="rounded=1;whiteSpace=wrap;html=1;" parent="1" vertex="1">
          <mxGeometry x="190" y="1724" width="120" height="60" as="geometry" />
        </mxCell>
        <mxCell id="OIBakOl0aCcwzjcW4kIF-6" value="" style="edgeStyle=orthogonalEdgeStyle;rounded=0;orthogonalLoop=1;jettySize=auto;html=1;exitX=0.492;exitY=0.79;exitDx=0;exitDy=0;exitPerimeter=0;" parent="1" source="OIBakOl0aCcwzjcW4kIF-3" target="OIBakOl0aCcwzjcW4kIF-5" edge="1">
          <mxGeometry relative="1" as="geometry" />
        </mxCell>
        <mxCell id="OIBakOl0aCcwzjcW4kIF-3" value="done" style="shape=tape;whiteSpace=wrap;html=1;fillColor=#60a917;fontColor=#ffffff;strokeColor=#2D7600;fillOpacity=50;" parent="1" vertex="1">
          <mxGeometry x="190" y="1704" width="120" height="100" as="geometry" />
        </mxCell>
        <mxCell id="OIBakOl0aCcwzjcW4kIF-8" value="" style="edgeStyle=orthogonalEdgeStyle;rounded=0;orthogonalLoop=1;jettySize=auto;html=1;" parent="1" source="OIBakOl0aCcwzjcW4kIF-5" target="OIBakOl0aCcwzjcW4kIF-7" edge="1">
          <mxGeometry relative="1" as="geometry" />
        </mxCell>
        <mxCell id="OIBakOl0aCcwzjcW4kIF-5" value="efficient code" style="rounded=1;whiteSpace=wrap;html=1;" parent="1" vertex="1">
          <mxGeometry x="190" y="1880" width="120" height="60" as="geometry" />
        </mxCell>
        <mxCell id="OIBakOl0aCcwzjcW4kIF-7" value="" style="shape=waypoint;sketch=0;size=6;pointerEvents=1;points=[];fillColor=default;resizable=0;rotatable=0;perimeter=centerPerimeter;snapToPoint=1;rounded=1;" parent="1" vertex="1">
          <mxGeometry x="440" y="1900" width="20" height="20" as="geometry" />
        </mxCell>
        <mxCell id="OIBakOl0aCcwzjcW4kIF-12" value="" style="edgeStyle=orthogonalEdgeStyle;rounded=0;orthogonalLoop=1;jettySize=auto;html=1;" parent="1" source="OIBakOl0aCcwzjcW4kIF-9" target="OIBakOl0aCcwzjcW4kIF-10" edge="1">
          <mxGeometry relative="1" as="geometry" />
        </mxCell>
        <mxCell id="OIBakOl0aCcwzjcW4kIF-9" value="add mojo support" style="rounded=1;whiteSpace=wrap;html=1;" parent="1" vertex="1">
          <mxGeometry x="450" y="1880" width="120" height="60" as="geometry" />
        </mxCell>
        <mxCell id="OIBakOl0aCcwzjcW4kIF-13" value="" style="edgeStyle=orthogonalEdgeStyle;rounded=0;orthogonalLoop=1;jettySize=auto;html=1;" parent="1" source="OIBakOl0aCcwzjcW4kIF-10" target="OIBakOl0aCcwzjcW4kIF-11" edge="1">
          <mxGeometry relative="1" as="geometry" />
        </mxCell>
        <mxCell id="OIBakOl0aCcwzjcW4kIF-10" value="add complied code for public release" style="rounded=1;whiteSpace=wrap;html=1;" parent="1" vertex="1">
          <mxGeometry x="450" y="2000" width="120" height="60" as="geometry" />
        </mxCell>
        <mxCell id="OIBakOl0aCcwzjcW4kIF-11" value="enable CUDA support for gpu utilisation" style="rounded=1;whiteSpace=wrap;html=1;" parent="1" vertex="1">
          <mxGeometry x="450" y="2130" width="120" height="60" as="geometry" />
        </mxCell>
        <mxCell id="OIBakOl0aCcwzjcW4kIF-14" value="" style="endArrow=classic;html=1;rounded=0;" parent="1" edge="1">
          <mxGeometry width="50" height="50" relative="1" as="geometry">
            <mxPoint x="450" y="2170" as="sourcePoint" />
            <mxPoint x="-640" y="2160" as="targetPoint" />
          </mxGeometry>
        </mxCell>
        <mxCell id="OIBakOl0aCcwzjcW4kIF-15" value="" style="endArrow=classic;html=1;rounded=0;" parent="1" edge="1">
          <mxGeometry width="50" height="50" relative="1" as="geometry">
            <mxPoint x="-640" y="2160" as="sourcePoint" />
            <mxPoint x="-630" y="1420" as="targetPoint" />
          </mxGeometry>
        </mxCell>
        <mxCell id="OIBakOl0aCcwzjcW4kIF-16" value="" style="endArrow=classic;html=1;rounded=0;entryX=0;entryY=0.5;entryDx=0;entryDy=0;" parent="1" target="2mOvRdaZIYywu_mcoboF-14" edge="1">
          <mxGeometry width="50" height="50" relative="1" as="geometry">
            <mxPoint x="-630" y="1420" as="sourcePoint" />
            <mxPoint x="-580" y="1370" as="targetPoint" />
          </mxGeometry>
        </mxCell>
        <mxCell id="-cVis6asQbSBOqHkCIzY-2" value="" style="edgeStyle=orthogonalEdgeStyle;rounded=0;orthogonalLoop=1;jettySize=auto;html=1;" parent="1" source="OIBakOl0aCcwzjcW4kIF-17" target="OIBakOl0aCcwzjcW4kIF-56" edge="1">
          <mxGeometry relative="1" as="geometry" />
        </mxCell>
        <mxCell id="OIBakOl0aCcwzjcW4kIF-17" value="sulfur file framework&amp;nbsp;" style="rounded=1;whiteSpace=wrap;html=1;" parent="1" vertex="1">
          <mxGeometry x="-1930" y="1120" width="120" height="60" as="geometry" />
        </mxCell>
        <mxCell id="OIBakOl0aCcwzjcW4kIF-20" value="" style="edgeStyle=orthogonalEdgeStyle;rounded=0;orthogonalLoop=1;jettySize=auto;html=1;" parent="1" source="OIBakOl0aCcwzjcW4kIF-18" target="OIBakOl0aCcwzjcW4kIF-19" edge="1">
          <mxGeometry relative="1" as="geometry" />
        </mxCell>
        <mxCell id="OIBakOl0aCcwzjcW4kIF-18" value="main file (zip etc)" style="rounded=1;whiteSpace=wrap;html=1;" parent="1" vertex="1">
          <mxGeometry x="-1930" y="1250" width="120" height="60" as="geometry" />
        </mxCell>
        <mxCell id="OIBakOl0aCcwzjcW4kIF-22" value="" style="edgeStyle=orthogonalEdgeStyle;rounded=0;orthogonalLoop=1;jettySize=auto;html=1;" parent="1" source="OIBakOl0aCcwzjcW4kIF-19" target="OIBakOl0aCcwzjcW4kIF-21" edge="1">
          <mxGeometry relative="1" as="geometry" />
        </mxCell>
        <mxCell id="OIBakOl0aCcwzjcW4kIF-25" value="" style="edgeStyle=orthogonalEdgeStyle;rounded=0;orthogonalLoop=1;jettySize=auto;html=1;" parent="1" source="OIBakOl0aCcwzjcW4kIF-19" target="OIBakOl0aCcwzjcW4kIF-24" edge="1">
          <mxGeometry relative="1" as="geometry" />
        </mxCell>
        <mxCell id="OIBakOl0aCcwzjcW4kIF-27" value="" style="edgeStyle=orthogonalEdgeStyle;rounded=0;orthogonalLoop=1;jettySize=auto;html=1;" parent="1" source="OIBakOl0aCcwzjcW4kIF-19" target="OIBakOl0aCcwzjcW4kIF-26" edge="1">
          <mxGeometry relative="1" as="geometry" />
        </mxCell>
        <mxCell id="OIBakOl0aCcwzjcW4kIF-30" value="" style="edgeStyle=orthogonalEdgeStyle;rounded=0;orthogonalLoop=1;jettySize=auto;html=1;" parent="1" source="OIBakOl0aCcwzjcW4kIF-19" target="OIBakOl0aCcwzjcW4kIF-29" edge="1">
          <mxGeometry relative="1" as="geometry" />
        </mxCell>
        <mxCell id="OIBakOl0aCcwzjcW4kIF-33" value="" style="edgeStyle=orthogonalEdgeStyle;rounded=0;orthogonalLoop=1;jettySize=auto;html=1;" parent="1" source="OIBakOl0aCcwzjcW4kIF-19" target="OIBakOl0aCcwzjcW4kIF-32" edge="1">
          <mxGeometry relative="1" as="geometry" />
        </mxCell>
        <mxCell id="OIBakOl0aCcwzjcW4kIF-19" value="data, .py script runner, settings, tos, ver, error logs, dvtk , api, volkshub-production&amp;nbsp;" style="whiteSpace=wrap;html=1;rounded=1;" parent="1" vertex="1">
          <mxGeometry x="-1930" y="1390" width="120" height="60" as="geometry" />
        </mxCell>
        <mxCell id="OIBakOl0aCcwzjcW4kIF-45" value="" style="edgeStyle=orthogonalEdgeStyle;rounded=0;orthogonalLoop=1;jettySize=auto;html=1;" parent="1" source="OIBakOl0aCcwzjcW4kIF-21" target="OIBakOl0aCcwzjcW4kIF-44" edge="1">
          <mxGeometry relative="1" as="geometry" />
        </mxCell>
        <mxCell id="OIBakOl0aCcwzjcW4kIF-21" value="data" style="whiteSpace=wrap;html=1;rounded=1;" parent="1" vertex="1">
          <mxGeometry x="-2360" y="1530" width="120" height="60" as="geometry" />
        </mxCell>
        <mxCell id="OIBakOl0aCcwzjcW4kIF-23" value="python script runner" style="rounded=1;whiteSpace=wrap;html=1;" parent="1" vertex="1">
          <mxGeometry x="-2187" y="1530" width="120" height="60" as="geometry" />
        </mxCell>
        <mxCell id="OIBakOl0aCcwzjcW4kIF-24" value="" style="shape=waypoint;sketch=0;size=6;pointerEvents=1;points=[];fillColor=default;resizable=0;rotatable=0;perimeter=centerPerimeter;snapToPoint=1;rounded=1;" parent="1" vertex="1">
          <mxGeometry x="-2137" y="1520" width="20" height="20" as="geometry" />
        </mxCell>
        <mxCell id="OIBakOl0aCcwzjcW4kIF-26" value="settings.py" style="rounded=1;whiteSpace=wrap;html=1;" parent="1" vertex="1">
          <mxGeometry x="-2020" y="1530" width="120" height="60" as="geometry" />
        </mxCell>
        <mxCell id="OIBakOl0aCcwzjcW4kIF-28" value="tos.txt" style="rounded=1;whiteSpace=wrap;html=1;" parent="1" vertex="1">
          <mxGeometry x="-1820" y="1530" width="120" height="60" as="geometry" />
        </mxCell>
        <mxCell id="OIBakOl0aCcwzjcW4kIF-29" value="" style="shape=waypoint;sketch=0;size=6;pointerEvents=1;points=[];fillColor=default;resizable=0;rotatable=0;perimeter=centerPerimeter;snapToPoint=1;rounded=1;" parent="1" vertex="1">
          <mxGeometry x="-1770" y="1520" width="20" height="20" as="geometry" />
        </mxCell>
        <mxCell id="OIBakOl0aCcwzjcW4kIF-31" value="ver" style="rounded=1;whiteSpace=wrap;html=1;" parent="1" vertex="1">
          <mxGeometry x="-1650" y="1530" width="120" height="60" as="geometry" />
        </mxCell>
        <mxCell id="OIBakOl0aCcwzjcW4kIF-32" value="" style="shape=waypoint;sketch=0;size=6;pointerEvents=1;points=[];fillColor=default;resizable=0;rotatable=0;perimeter=centerPerimeter;snapToPoint=1;rounded=1;" parent="1" vertex="1">
          <mxGeometry x="-1600" y="1520" width="20" height="20" as="geometry" />
        </mxCell>
        <mxCell id="OIBakOl0aCcwzjcW4kIF-34" value="error logs" style="rounded=1;whiteSpace=wrap;html=1;" parent="1" vertex="1">
          <mxGeometry x="-1470" y="1530" width="120" height="60" as="geometry" />
        </mxCell>
        <mxCell id="OIBakOl0aCcwzjcW4kIF-35" value="" style="endArrow=classic;html=1;rounded=0;" parent="1" edge="1">
          <mxGeometry width="50" height="50" relative="1" as="geometry">
            <mxPoint x="-1810" y="1420" as="sourcePoint" />
            <mxPoint x="-1390" y="1420" as="targetPoint" />
          </mxGeometry>
        </mxCell>
        <mxCell id="OIBakOl0aCcwzjcW4kIF-36" value="" style="endArrow=classic;html=1;rounded=0;entryX=0.589;entryY=0.011;entryDx=0;entryDy=0;entryPerimeter=0;" parent="1" target="OIBakOl0aCcwzjcW4kIF-34" edge="1">
          <mxGeometry width="50" height="50" relative="1" as="geometry">
            <mxPoint x="-1390" y="1420" as="sourcePoint" />
            <mxPoint x="-1340" y="1370" as="targetPoint" />
          </mxGeometry>
        </mxCell>
        <mxCell id="OIBakOl0aCcwzjcW4kIF-37" value="api" style="rounded=1;whiteSpace=wrap;html=1;" parent="1" vertex="1">
          <mxGeometry x="-1290" y="1530" width="120" height="60" as="geometry" />
        </mxCell>
        <mxCell id="OIBakOl0aCcwzjcW4kIF-38" value="vh productions" style="rounded=1;whiteSpace=wrap;html=1;" parent="1" vertex="1">
          <mxGeometry x="-1105" y="1530" width="120" height="60" as="geometry" />
        </mxCell>
        <mxCell id="OIBakOl0aCcwzjcW4kIF-39" value="" style="endArrow=classic;html=1;rounded=0;entryX=0.5;entryY=0;entryDx=0;entryDy=0;" parent="1" target="OIBakOl0aCcwzjcW4kIF-37" edge="1">
          <mxGeometry width="50" height="50" relative="1" as="geometry">
            <mxPoint x="-1400" y="1420" as="sourcePoint" />
            <mxPoint x="-1350" y="1370" as="targetPoint" />
          </mxGeometry>
        </mxCell>
        <mxCell id="OIBakOl0aCcwzjcW4kIF-40" value="" style="endArrow=classic;html=1;rounded=0;entryX=0.5;entryY=0;entryDx=0;entryDy=0;" parent="1" target="OIBakOl0aCcwzjcW4kIF-38" edge="1">
          <mxGeometry width="50" height="50" relative="1" as="geometry">
            <mxPoint x="-1390" y="1420" as="sourcePoint" />
            <mxPoint x="-1340" y="1370" as="targetPoint" />
          </mxGeometry>
        </mxCell>
        <mxCell id="OIBakOl0aCcwzjcW4kIF-41" value="general" style="rounded=1;whiteSpace=wrap;html=1;fillColor=#dae8fc;strokeColor=#6c8ebf;fillOpacity=50;" parent="1" vertex="1">
          <mxGeometry x="-1830" y="1520" width="330" height="90" as="geometry" />
        </mxCell>
        <mxCell id="OIBakOl0aCcwzjcW4kIF-42" value="general" style="rounded=1;whiteSpace=wrap;html=1;fillColor=#dae8fc;strokeColor=#6c8ebf;fillOpacity=50;" parent="1" vertex="1">
          <mxGeometry x="-1130" y="1515" width="170" height="90" as="geometry" />
        </mxCell>
        <mxCell id="OIBakOl0aCcwzjcW4kIF-43" value="general" style="rounded=1;whiteSpace=wrap;html=1;fillColor=#dae8fc;strokeColor=#6c8ebf;fillOpacity=50;" parent="1" vertex="1">
          <mxGeometry x="-2220" y="1515" width="330" height="90" as="geometry" />
        </mxCell>
        <mxCell id="OIBakOl0aCcwzjcW4kIF-47" value="" style="edgeStyle=orthogonalEdgeStyle;rounded=0;orthogonalLoop=1;jettySize=auto;html=1;" parent="1" source="OIBakOl0aCcwzjcW4kIF-44" target="OIBakOl0aCcwzjcW4kIF-46" edge="1">
          <mxGeometry relative="1" as="geometry" />
        </mxCell>
        <mxCell id="OIBakOl0aCcwzjcW4kIF-44" value="ai_renderer" style="whiteSpace=wrap;html=1;rounded=1;" parent="1" vertex="1">
          <mxGeometry x="-2360" y="1670" width="120" height="60" as="geometry" />
        </mxCell>
        <mxCell id="OIBakOl0aCcwzjcW4kIF-49" value="" style="edgeStyle=orthogonalEdgeStyle;rounded=0;orthogonalLoop=1;jettySize=auto;html=1;" parent="1" source="OIBakOl0aCcwzjcW4kIF-46" target="OIBakOl0aCcwzjcW4kIF-48" edge="1">
          <mxGeometry relative="1" as="geometry" />
        </mxCell>
        <mxCell id="OIBakOl0aCcwzjcW4kIF-46" value="dependancy data" style="whiteSpace=wrap;html=1;rounded=1;" parent="1" vertex="1">
          <mxGeometry x="-2360" y="1810" width="120" height="60" as="geometry" />
        </mxCell>
        <mxCell id="OIBakOl0aCcwzjcW4kIF-51" value="" style="edgeStyle=orthogonalEdgeStyle;rounded=0;orthogonalLoop=1;jettySize=auto;html=1;" parent="1" source="OIBakOl0aCcwzjcW4kIF-48" target="OIBakOl0aCcwzjcW4kIF-50" edge="1">
          <mxGeometry relative="1" as="geometry" />
        </mxCell>
        <mxCell id="OIBakOl0aCcwzjcW4kIF-48" value="images" style="whiteSpace=wrap;html=1;rounded=1;" parent="1" vertex="1">
          <mxGeometry x="-2360" y="1950" width="120" height="60" as="geometry" />
        </mxCell>
        <mxCell id="OIBakOl0aCcwzjcW4kIF-53" value="" style="edgeStyle=orthogonalEdgeStyle;rounded=0;orthogonalLoop=1;jettySize=auto;html=1;" parent="1" source="OIBakOl0aCcwzjcW4kIF-50" target="OIBakOl0aCcwzjcW4kIF-52" edge="1">
          <mxGeometry relative="1" as="geometry" />
        </mxCell>
        <mxCell id="OIBakOl0aCcwzjcW4kIF-50" value="output_data" style="whiteSpace=wrap;html=1;rounded=1;" parent="1" vertex="1">
          <mxGeometry x="-2360" y="2090" width="120" height="60" as="geometry" />
        </mxCell>
        <mxCell id="OIBakOl0aCcwzjcW4kIF-55" value="" style="edgeStyle=orthogonalEdgeStyle;rounded=0;orthogonalLoop=1;jettySize=auto;html=1;" parent="1" source="OIBakOl0aCcwzjcW4kIF-52" target="OIBakOl0aCcwzjcW4kIF-54" edge="1">
          <mxGeometry relative="1" as="geometry" />
        </mxCell>
        <mxCell id="OIBakOl0aCcwzjcW4kIF-52" value="settings" style="whiteSpace=wrap;html=1;rounded=1;" parent="1" vertex="1">
          <mxGeometry x="-2360" y="2230" width="120" height="60" as="geometry" />
        </mxCell>
        <mxCell id="OIBakOl0aCcwzjcW4kIF-54" value="attributes,attribute_guides,&lt;div&gt;input,output.txt&lt;/div&gt;" style="whiteSpace=wrap;html=1;rounded=1;" parent="1" vertex="1">
          <mxGeometry x="-2360" y="2370" width="120" height="60" as="geometry" />
        </mxCell>
        <mxCell id="OIBakOl0aCcwzjcW4kIF-56" value="not finished (to complete on version 1-4)" style="rounded=1;whiteSpace=wrap;html=1;" parent="1" vertex="1">
          <mxGeometry x="-1725" y="1120" width="120" height="60" as="geometry" />
        </mxCell>
        <mxCell id="OIBakOl0aCcwzjcW4kIF-57" value="&lt;div&gt;updated 10.3.2025&lt;/div&gt;&lt;div&gt;&lt;br&gt;&lt;/div&gt;" style="rounded=0;whiteSpace=wrap;html=1;" parent="1" vertex="1">
          <mxGeometry x="-1090" y="900" width="120" height="60" as="geometry" />
        </mxCell>
        <mxCell id="OIBakOl0aCcwzjcW4kIF-58" value="" style="shape=flexArrow;endArrow=classic;html=1;rounded=0;width=61.333333333333336;endSize=9.773333333333333;exitX=1.017;exitY=1.067;exitDx=0;exitDy=0;exitPerimeter=0;fillColor=#ffe6cc;strokeColor=#d79b00;" parent="1" source="OIBakOl0aCcwzjcW4kIF-24" edge="1">
          <mxGeometry width="50" height="50" relative="1" as="geometry">
            <mxPoint x="-2130" y="1450" as="sourcePoint" />
            <mxPoint x="-2127" y="410" as="targetPoint" />
          </mxGeometry>
        </mxCell>
        <mxCell id="OIBakOl0aCcwzjcW4kIF-59" value="" style="shape=flexArrow;endArrow=classic;html=1;rounded=0;entryX=0.011;entryY=0.639;entryDx=0;entryDy=0;entryPerimeter=0;endWidth=45.333333333333336;endSize=17.746666666666666;fillColor=#ffe6cc;strokeColor=#d79b00;" parent="1" target="-uAn8qLbP6gpHFIlixTi-79" edge="1">
          <mxGeometry width="50" height="50" relative="1" as="geometry">
            <mxPoint x="-2130" y="420" as="sourcePoint" />
            <mxPoint x="-2080" y="370" as="targetPoint" />
            <Array as="points">
              <mxPoint x="-2080" y="424" />
              <mxPoint x="-2050" y="424" />
            </Array>
          </mxGeometry>
        </mxCell>
        <mxCell id="gNTYUqSc5wNCBBxMDGcb-1" value="" style="endArrow=classic;startArrow=classic;html=1;rounded=0;exitX=0;exitY=0.5;exitDx=0;exitDy=0;" parent="1" source="OIBakOl0aCcwzjcW4kIF-44" edge="1">
          <mxGeometry width="50" height="50" relative="1" as="geometry">
            <mxPoint x="-2380" y="1440" as="sourcePoint" />
            <mxPoint x="-2160" y="1290" as="targetPoint" />
            <Array as="points">
              <mxPoint x="-2410" y="1420" />
            </Array>
          </mxGeometry>
        </mxCell>
        <mxCell id="-cVis6asQbSBOqHkCIzY-1" value="VersionFiles" style="rounded=1;whiteSpace=wrap;html=1;" parent="1" vertex="1">
          <mxGeometry x="-930" y="1530" width="120" height="60" as="geometry" />
        </mxCell>
        <mxCell id="-cVis6asQbSBOqHkCIzY-3" value="" style="endArrow=classic;html=1;rounded=0;entryX=0.408;entryY=-0.033;entryDx=0;entryDy=0;entryPerimeter=0;" parent="1" target="-cVis6asQbSBOqHkCIzY-1" edge="1">
          <mxGeometry width="50" height="50" relative="1" as="geometry">
            <mxPoint x="-1390" y="1420" as="sourcePoint" />
            <mxPoint x="-1340" y="1370" as="targetPoint" />
          </mxGeometry>
        </mxCell>
        <mxCell id="3veHwtKQkPX8jts9Y9nL-1" value="done" style="shape=tape;whiteSpace=wrap;html=1;fillColor=#60a917;fontColor=#ffffff;strokeColor=#2D7600;fillOpacity=50;" vertex="1" parent="1">
          <mxGeometry x="-100" y="1480" width="120" height="100" as="geometry" />
        </mxCell>
        <mxCell id="1K-txp--64s6BpRaUo6k-20" value="MACHINE LEARNING" style="rounded=1;whiteSpace=wrap;html=1;fillColor=#a20025;fontColor=#ffffff;strokeColor=#6F0000;fillOpacity=50;" parent="1" vertex="1">
          <mxGeometry x="-520" y="670" width="1640" height="1572.5" as="geometry" />
        </mxCell>
        <mxCell id="-uAn8qLbP6gpHFIlixTi-14" value="training algorithm" style="rounded=1;whiteSpace=wrap;html=1;arcSize=50;fillColor=#fff2cc;strokeColor=default;glass=0;fillOpacity=50;" parent="1" vertex="1">
          <mxGeometry x="-420" y="445" width="1830" height="2090" as="geometry" />
        </mxCell>
      </root>
    </mxGraphModel>
  </diagram>
</mxfile>
